<svg width="534" height="667" viewBox="0 0 534 667" fill="none" xmlns="http://www.w3.org/2000/svg">
<path d="M166.667 333.343H366.667" stroke="#757575" stroke-width="66.6667" stroke-linecap="round" stroke-linejoin="round"/>
<path d="M166.667 433.343H366.667" stroke="#757575" stroke-width="66.6667" stroke-linecap="round" stroke-linejoin="round"/>
<path d="M460.947 160.957C480.217 180.226 489.85 189.86 494.927 202.111C500 214.363 500 227.988 500 255.238V500.009C500 562.863 500 594.289 480.473 613.816C460.947 633.343 429.52 633.343 366.667 633.343H166.667C103.813 633.343 72.3858 633.343 52.8598 613.816C33.3335 594.289 33.3335 562.863 33.3335 500.009V166.676C33.3335 103.822 33.3335 72.3951 52.8598 52.8691C72.3858 33.3428 103.813 33.3428 166.667 33.3428H278.103C305.353 33.3428 318.98 33.3428 331.23 38.4174C343.483 43.4921 353.117 53.1264 372.387 72.3951L460.947 160.957Z" stroke="#757575" stroke-width="66.6667" stroke-linejoin="round"/>
</svg>
