<svg width="455" height="1185" viewBox="0 0 455 1185" fill="none" xmlns="http://www.w3.org/2000/svg">
<path d="M407.05 1153.79C406.143 1156.17 401.189 1157.54 401.189 1157.54L388.402 1163.54L393.388 1132.49L397.919 985.745L401.09 736.046V536.467V429.072V283.632V45.4591L399.057 10.7983C399.057 10.7983 403.461 12.6417 405.451 13.7983C407.44 14.9548 412.444 21.3956 415.133 24.9741C417.823 28.5526 419.318 36.9598 421.023 43.3728C422.727 49.7858 423.213 53.4679 424.647 59.9314C426.081 66.3949 427.903 74.5776 429.63 82.0098C431.358 89.4419 432.634 94.0942 434.161 101.022C435.568 107.407 436.31 111.222 437.477 117.226L437.785 118.807C439.139 125.762 440.14 130.748 441.409 138.432C442.678 146.116 444.018 156.735 445.486 168.483C446.954 180.231 448.499 193.673 449.11 200.374C449.721 207.075 449.877 210.844 450.47 217.546C451.062 224.248 451.757 228.748 452.282 235.945C452.806 243.142 452.889 251.63 453.188 256.183C453.487 260.737 453.799 263.282 454.094 267.836C454.389 272.389 455.012 293.69 455 302.793C454.988 311.895 454.709 318.673 454.547 326.098L454.492 328.626C454.353 335.012 454.23 340.658 454.094 345.11C453.94 350.14 453.904 353.194 453.641 357.989C453.377 362.783 452.978 365.946 452.735 370.254C452.491 374.563 452.545 377.217 452.282 381.294C452.018 385.37 451.754 387.65 451.376 391.719C450.997 395.789 450.445 399.936 450.017 405.212C449.588 410.488 449.729 414.769 449.11 420.544C448.492 426.319 447.59 429.5 446.845 435.263C446.101 441.026 445.718 446.954 445.033 453.661C444.349 460.356 443.945 464.114 443.225 470.795L443.221 470.833C442.499 477.538 441.739 485.801 440.503 495.365C439.267 504.929 438.302 510.317 436.879 519.896C435.455 529.476 433.173 545.48 430.989 559.147C428.806 572.813 426.006 583.412 425.1 594.104C424.194 604.797 425.1 610.047 425.1 619.797C425.1 626.549 425.1 639.056 425.1 647.853L425.1 656.546C425.1 661.796 427.36 665.546 426.23 672.296C425.1 679.046 425.08 691.647 424.194 698.113C423.308 704.58 424.099 708.296 423.566 715.046C423.033 721.796 421.632 736.49 420.57 745.336C419.508 754.183 419.131 759.162 418.305 768.028C417.479 776.894 416.375 787.823 415.587 800.532C414.799 813.241 414.933 822.069 414.228 835.489C413.523 848.91 412.236 860.017 411.963 869.833C411.691 879.587 411.788 885.089 411.959 894.789L411.963 894.978C412.132 904.569 413.647 929.132 414.613 944.781L414.681 945.881C415.641 961.454 416.557 974.246 417.399 985.745C418.241 997.243 417.455 1003.72 418.771 1015.18C420.086 1026.65 416.984 1042.8 415.041 1056.3C413.098 1069.8 413.858 1071.3 412.91 1080.3C411.963 1089.3 411.262 1091.43 411.963 1099.8C412.663 1108.16 411.029 1114.28 411.194 1119.77C411.358 1125.27 410.865 1130.81 410.865 1134.77C410.865 1138.74 411.414 1141.28 410.865 1144.51C410.316 1147.74 407.956 1151.42 407.05 1153.79Z" fill="#F8E8CC"/>
<path d="M47.5672 29.4546C48.466 27.1 53.381 25.7412 53.381 25.7412L70.8607 11.5498L61.1194 50.5484L56.625 195.865L53.4795 443.126V640.758V747.105V891.126V1126.97L55.4954 1161.3C55.4954 1161.3 51.1268 1159.47 49.1531 1158.33C47.1794 1157.18 42.216 1150.8 39.5479 1147.26C36.8799 1143.72 35.3968 1135.39 33.7057 1129.04C32.0146 1122.69 31.5326 1119.04 30.1104 1112.64C28.6883 1106.24 26.8808 1098.14 25.167 1090.78C23.4532 1083.42 22.1873 1078.81 20.6729 1071.95C19.2772 1065.63 18.5411 1061.85 17.3829 1055.91L17.0777 1054.34C15.7346 1047.45 14.7415 1042.52 13.4824 1034.91C12.2234 1027.3 10.8941 1016.78 9.43778 1005.15C7.98142 993.517 6.44864 980.206 5.84254 973.571C5.23644 966.935 5.08253 963.203 4.49432 956.566C3.90611 949.93 3.21668 945.474 2.6967 938.347C2.17672 931.22 2.09457 922.816 1.79789 918.306C1.5012 913.797 1.19161 911.277 0.899078 906.768C0.606544 902.258 -0.0114517 881.165 0.000267029 872.151C0.0119934 863.138 0.288681 856.426 0.449661 849.074L0.504173 846.577C0.642036 840.251 0.763954 834.657 0.899078 830.248C1.05173 825.267 1.08708 822.242 1.3485 817.494C1.60991 812.747 2.00552 809.615 2.2473 805.348C2.48907 801.082 2.43555 798.454 2.6967 794.417C2.95786 790.38 3.22034 788.123 3.59551 784.093C3.97068 780.063 4.51878 775.957 4.94373 770.732C5.36868 765.507 5.22903 761.268 5.84254 755.55C6.45605 749.831 7.35133 746.681 8.08956 740.974C8.8278 735.267 9.2076 729.398 9.88718 722.755C10.5654 716.126 10.9668 712.406 11.6804 705.792L11.6848 705.751C12.4011 699.111 13.1554 690.93 14.3812 681.459C15.6071 671.988 16.5642 666.653 17.9765 657.167C19.3888 647.681 21.6527 631.833 23.8188 618.3C25.9848 604.767 28.7622 594.271 29.661 583.683C30.5598 573.095 29.6607 567.896 29.661 558.242C29.6613 551.56 29.661 539.186 29.6608 530.476L29.6607 521.85C29.6607 516.652 27.4194 512.938 28.5402 506.254C29.661 499.57 29.6808 487.093 30.5598 480.689C31.4389 474.286 30.6543 470.606 31.1829 463.921C31.7114 457.237 33.1008 442.687 34.1548 433.927C35.2087 425.167 35.5825 420.236 36.4018 411.457C37.2211 402.677 38.3163 391.855 39.0982 379.27C39.8801 366.685 39.7472 357.943 40.4464 344.654C41.1456 331.364 42.4225 320.366 42.6935 310.645C42.9627 300.987 42.8664 295.539 42.6968 285.933L42.6935 285.746C42.5257 276.249 41.0222 251.925 40.0644 236.429L39.997 235.34C39.0441 219.919 38.1358 207.251 37.3006 195.865C36.4654 184.479 37.2445 178.067 35.9396 166.714C34.6347 155.362 37.7119 139.371 39.6393 126.003C41.5667 112.635 40.8134 111.149 41.7534 102.237C42.6935 93.3249 43.3884 91.2068 42.6935 82.9274C41.9985 74.6481 43.6195 68.5863 43.4563 63.1429C43.2931 57.6995 43.7824 52.2136 43.7824 48.2893C43.7824 44.3651 43.2379 41.8469 43.7824 38.651C44.3268 35.455 46.6684 31.8092 47.5672 29.4546Z" fill="#F8E8CC"/>
<path d="M286.628 1171.08C319.346 1170.38 359.533 1178.79 369.678 1175.76C379.823 1172.73 385.907 1168.62 391.57 1158.76C395.676 1151.61 399.583 1143.64 404.63 1134.73C416.638 1113.55 48.9857 1120.28 51.1576 1134.73C53.3295 1149.19 51.5901 1160.17 58.6328 1171.08C65.6756 1181.98 75.7265 1182.19 87.466 1183.95C99.2054 1185.71 112.561 1179.4 131.25 1176.38C149.938 1173.35 166.778 1181.06 186.78 1176.38C206.782 1171.69 253.91 1171.77 286.628 1171.08Z" fill="#F8E8CC"/>
<path d="M169.615 10.9395C202.234 10.4823 247.721 2.48354 269.695 5.19425C291.668 7.90496 306.426 7.19155 325.058 5.19425C343.69 3.19696 357.006 -0.9594 368.71 0.200993C380.414 1.36139 392.131 4.79992 399.59 10.7999C407.049 16.7999 402.743 23.121 404.909 32.657C407.074 42.1931 47.9517 39.2999 51.148 32.5498C54.3444 25.7997 61.4277 21.527 65.5221 16.8123C71.1673 10.3119 70.0534 8.8453 86.8448 5.19425C94.5156 3.52634 102.296 4.5797 115.615 4.04992C130.533 2.54993 151.897 11.1878 169.615 10.9395Z" fill="#F8E8CC"/>
<rect x="404.918" y="32.5498" width="1102.5" height="353.77" transform="rotate(90 404.918 32.5498)" fill="#F8E8CC"/>
</svg>
