<svg width="1920" height="864" viewBox="0 0 1920 864" fill="none" xmlns="http://www.w3.org/2000/svg">
<rect y="47.2754" width="1920" height="771.894" fill="#F0E1C6"/>
<path d="M1.92778 39.7003C-1.40453 40.9156 0.594858 48.2078 0.594858 48.2078V57.5252L39.916 55.0946L294.539 67.6528L717.04 60.3609L1042.27 48.2078H1222.88H1467.47H1868.02H1920C1920 48.2078 1917.82 45.1257 1915.87 43.3465C1913.93 41.5674 1908.48 38.0545 1902.47 35.6495C1896.45 33.2445 1882.31 31.9075 1871.52 30.3831C1860.74 28.8587 1854.55 28.4242 1843.68 27.1423C1832.81 25.8603 1819.05 24.231 1806.55 22.6861C1794.05 21.1412 1786.23 20.0001 1774.57 18.635C1763.84 17.377 1757.42 16.7135 1747.33 15.6695L1744.66 15.3942C1732.97 14.1835 1724.58 13.2883 1711.66 12.1533C1698.74 11.0184 1680.88 9.82018 1661.12 8.50738C1641.37 7.19458 1618.76 5.81288 1607.49 5.26653C1596.22 4.72017 1589.88 4.58144 1578.61 4.05121C1567.34 3.52098 1559.77 2.89951 1547.67 2.43079C1535.57 1.96206 1521.29 1.88802 1513.63 1.62057C1505.98 1.35313 1501.7 1.07406 1494.04 0.810356C1486.38 0.546661 1450.56 -0.0104218 1435.25 0.000144958C1419.94 0.0107117 1408.54 0.260139 1396.06 0.405251L1391.8 0.454544C1381.06 0.578758 1371.57 0.688599 1364.08 0.810356C1355.62 0.94796 1350.49 0.97982 1342.43 1.21546C1334.36 1.45111 1329.04 1.80774 1321.8 2.02568C1314.55 2.24361 1310.09 2.19537 1303.23 2.43079C1296.38 2.6662 1292.54 2.90281 1285.7 3.241C1278.85 3.57919 1271.88 4.07326 1263.01 4.45631C1254.14 4.83937 1246.94 4.71349 1237.22 5.26653C1227.51 5.81956 1222.16 6.62659 1212.47 7.29206C1202.78 7.95753 1192.81 8.29988 1181.53 8.91248C1170.27 9.52393 1163.95 9.88581 1152.71 10.5292L1152.65 10.5329C1141.37 11.1786 1127.48 11.8585 1111.4 12.9635C1095.31 14.0686 1086.25 14.9313 1070.14 16.2044C1054.03 17.4775 1027.11 19.5182 1004.13 21.4708C981.148 23.4233 962.25 25.2753 945.342 26.7372C928.434 28.199 918.927 28.8976 902.024 30.3831C885.122 31.8686 859.909 34.183 849.424 35.2444C838.939 36.3058 833.114 37.0997 822.608 38.0801C812.101 39.0606 789.133 40.5286 778.258 41.321C767.383 42.1134 761.282 42.5337 750.411 43.3465C739.54 44.1594 713.719 46.4475 698.842 47.3976C683.964 48.3476 675.591 48.6846 660.68 49.4231C645.77 50.1616 627.39 51.1489 606.017 51.8537C584.644 52.5585 569.798 52.4388 547.228 53.0691C524.659 53.6993 505.98 54.8503 489.471 55.0946C473.068 55.3373 463.816 55.2505 447.502 55.0976L447.184 55.0946C431.056 54.9434 389.747 53.5881 363.431 52.7247L361.579 52.6639C335.39 51.8049 313.877 50.9862 294.539 50.2333C275.202 49.4804 264.313 49.3841 245.033 48.2078C225.752 47.0315 212.334 45.5399 191.401 43.7516C170.467 41.9634 146.134 40.0517 131.581 38.4852C117.027 36.9187 108.512 35.5803 94.4508 34.0291C80.3899 32.4778 67.155 31.5573 57.9104 31.1931C48.6659 30.8289 42.4614 31.2825 35.9173 32.4084C29.3731 33.5343 24.8153 32.9481 19.1598 35.2444C13.5042 37.5407 5.26009 38.485 1.92778 39.7003Z" fill="#F0E1C6"/>
<path d="M1913.35 822.679C1917.34 821.869 1920 817.413 1920 817.413L1914.68 806.475L1875.46 808.905L1621.46 796.347L1200 803.639L875.568 815.792H695.402H451.413H51.856H0C0 815.792 2.17517 818.874 4.11536 820.653C6.05554 822.433 11.4871 825.945 17.4902 828.351C23.4934 830.756 37.5974 832.092 48.3557 833.617C59.114 835.141 65.2914 835.576 76.1345 836.858C86.9777 838.14 100.705 839.769 113.173 841.314C125.641 842.859 133.446 844 145.067 845.365C155.778 846.623 162.179 847.287 172.25 848.331L174.904 848.606C186.571 849.817 194.937 850.712 207.827 851.847C220.717 852.982 238.532 854.18 258.24 855.493C277.949 856.805 300.499 858.187 311.74 858.733C322.981 859.28 329.304 859.419 340.548 859.949C351.791 860.479 359.339 861.1 371.413 861.569C383.487 862.038 397.726 862.112 405.365 862.379C413.004 862.647 417.274 862.926 424.913 863.19C432.552 863.453 468.287 864.01 483.557 864C498.828 863.989 510.198 863.74 522.653 863.595L526.9 863.545C537.61 863.421 547.082 863.311 554.548 863.19C562.986 863.052 568.11 863.02 576.153 862.785C584.197 862.549 589.502 862.192 596.73 861.974C603.958 861.756 608.41 861.805 615.25 861.569C622.089 861.334 625.912 861.097 632.74 860.759C639.568 860.421 646.523 859.927 655.375 859.544C664.226 859.161 671.408 859.287 681.096 858.733C690.783 858.18 696.12 857.373 705.788 856.708C715.456 856.042 725.4 855.7 736.653 855.088C747.883 854.476 754.187 854.114 765.392 853.471L765.461 853.467C776.709 852.821 790.57 852.141 806.615 851.036C822.66 849.931 831.699 849.069 847.769 847.796C863.839 846.522 890.688 844.482 913.615 842.529C936.541 840.577 955.393 838.725 972.259 837.263C989.125 835.801 998.61 835.102 1015.47 833.617C1032.33 832.131 1057.48 829.817 1067.94 828.756C1078.4 827.694 1084.21 826.9 1094.69 825.92C1105.17 824.939 1128.08 823.471 1138.93 822.679C1149.78 821.887 1155.87 821.466 1166.71 820.653C1177.55 819.841 1203.31 817.552 1218.15 816.602C1232.99 815.652 1241.35 815.315 1256.22 814.577C1271.09 813.838 1289.43 812.851 1310.75 812.146C1332.07 811.441 1346.88 811.561 1369.39 810.931C1391.91 810.301 1410.54 809.15 1427.01 808.905C1443.37 808.663 1452.6 808.749 1468.87 808.902L1469.19 808.905C1485.28 809.057 1526.49 810.412 1552.74 811.275L1554.59 811.336C1580.71 812.195 1602.17 813.014 1621.46 813.767C1640.75 814.52 1651.61 814.616 1670.85 815.792C1690.08 816.969 1703.46 818.46 1724.35 820.248C1745.23 822.037 1769.5 823.948 1784.02 825.515C1798.54 827.081 1807.03 828.42 1821.06 829.971C1835.08 831.522 1847.84 830.822 1857.07 831.186C1866.29 831.55 1872.8 829.971 1879.45 829.971C1886.09 829.971 1890.65 828.756 1896.07 827.54C1901.48 826.325 1909.36 823.489 1913.35 822.679Z" fill="#F0E1C6"/>
</svg>
