<svg width="1656" height="1000" viewBox="0 0 1656 1000" fill="none" xmlns="http://www.w3.org/2000/svg">
<rect x="1609.69" y="67.0376" width="867.207" height="1555.19" transform="rotate(90 1609.69 67.0376)" fill="#F0E1C6"/>
<path d="M1655.97 479.358C1656.68 416.251 1645.37 350.609 1645.86 293.15C1646.35 235.691 1648.52 220.792 1651.16 177.7C1653.8 134.608 1635.76 71.2941 1634.69 68.634C1633.63 65.9739 1632.52 70.2697 1629.9 69.6981C1627.29 69.1265 1624.05 69.1661 1621.39 68.634C1618.73 68.1019 1616.61 68.634 1609.69 67.0378C1602.78 65.4417 1607.41 933.191 1609.69 934.245C1611.97 935.299 1611.99 934.957 1614.48 935.309C1616.96 935.661 1621.39 935.309 1624.58 934.245C1627.78 933.181 1628.84 928.393 1630.44 925.201C1632.03 922.008 1641.61 873.06 1644.79 831.563C1647.98 790.067 1642.67 756.013 1645.86 714.515C1649.05 673.017 1648.84 655.675 1651.16 611.304C1653.48 566.932 1655.25 542.465 1655.97 479.358Z" fill="#F0E1C6"/>
<path d="M1.31658 480.954C5.55128 423.531 3.44418 352.203 10.4499 294.744C17.4557 237.285 8.78218 220.885 10.4499 177.547C12.1176 134.21 27.1417 76.6012 28.2557 73.9448C29.3697 71.2883 29.9714 70.2652 32.7117 69.6944C35.452 69.1236 38.8387 69.1631 41.6238 68.6318C44.4088 68.1005 46.6368 68.6318 53.8778 67.0378C61.1188 65.4439 56.2647 931.996 53.8789 933.049C51.4931 934.102 51.4676 933.76 48.8648 934.112C46.262 934.463 41.6238 934.112 38.2817 933.049C34.9397 931.986 33.8257 927.205 32.1547 924.017C30.4837 920.829 16.2091 883.168 12.486 843.266C8.76289 803.364 12.486 756.013 10.4499 712.03C8.41385 668.047 9.06493 655.611 6.6354 611.301C4.20587 566.991 -2.91812 538.378 1.31658 480.954Z" fill="#F0E1C6"/>
<path d="M46.8047 957.652C44.1454 955.524 43.0816 952.332 41.486 950.736C39.8904 949.14 35.925 936.688 35.108 932.964C34.2909 929.24 33.5127 924.984 32.9808 920.195C32.449 915.407 76.5895 911.366 76.5895 911.366L278.721 922.856L615.898 932.432L924.149 929.24H1068.29H1263.48H1583.14L1626.75 931.9C1626.75 931.9 1625.16 933.496 1624.09 936.156C1623.03 938.816 1614.37 950.023 1609.57 953.181C1604.77 956.34 1593.48 958.096 1584.87 960.098C1576.27 962.1 1571.33 962.67 1562.65 964.354C1553.98 966.037 1542.99 968.177 1533.02 970.206C1523.04 972.235 1516.8 973.734 1507.5 975.526C1498.93 977.179 1493.81 978.05 1485.76 979.421L1483.63 979.783C1474.3 981.373 1467.61 982.548 1457.29 984.039C1446.98 985.529 1432.73 987.103 1416.96 988.827C1401.2 990.551 1383.15 992.366 1374.16 993.083C1365.17 993.801 1360.11 993.983 1351.11 994.679C1342.12 995.376 1336.08 996.192 1326.42 996.808C1316.76 997.423 1305.37 997.52 1299.26 997.872C1293.15 998.223 1289.73 998.589 1283.62 998.936C1277.51 999.282 1248.92 1000.01 1236.7 1000C1224.49 999.986 1215.39 999.658 1205.43 999.468L1202.03 999.403C1193.46 999.24 1185.88 999.096 1179.91 998.936C1173.16 998.755 1169.06 998.713 1162.62 998.404C1156.19 998.094 1151.94 997.626 1146.16 997.34C1140.38 997.053 1136.82 997.117 1131.35 996.808C1125.87 996.498 1122.82 996.188 1117.35 995.744C1111.89 995.299 1106.33 994.651 1099.24 994.147C1092.16 993.644 1086.42 993.81 1078.67 993.083C1070.92 992.357 1066.65 991.297 1058.91 990.423C1051.18 989.549 1043.22 989.1 1034.22 988.295C1025.24 987.492 1020.19 987.017 1011.23 986.173L1011.17 986.167C1002.17 985.319 991.085 984.426 978.249 982.975C965.413 981.524 957.217 983.051 944.361 981.379C931.505 979.707 907.13 979.251 891.174 982.975C875.218 986.699 810.526 985.959 797.033 984.039C783.539 982.119 775.951 981.201 762.462 979.251C748.973 977.3 728.852 974.26 720.484 972.866C712.117 971.472 707.469 970.43 699.084 969.142C690.699 967.854 672.369 965.926 663.69 964.886C655.012 963.845 650.142 963.293 641.467 962.226C632.791 961.158 612.185 958.153 600.312 956.905C588.439 955.658 581.756 955.215 569.857 954.245C557.958 953.275 543.29 951.979 526.233 951.053C509.176 950.127 497.328 950.285 479.316 949.457C461.305 948.629 446.398 947.118 433.223 946.797C420.132 946.478 412.749 946.592 399.729 946.793L399.476 946.797C386.604 946.995 353.637 948.775 332.635 949.909L331.158 949.989C310.258 951.117 293.089 952.192 277.657 953.181C262.225 954.17 253.535 954.296 238.148 955.841C222.761 957.386 212.053 959.345 195.347 961.694C178.641 964.042 160.625 961.694 148.392 962.973C136.159 964.251 129.208 965.509 117.987 967.546C106.765 969.583 96.556 968.664 89.1783 969.142C81.8007 969.62 76.5926 967.546 71.2739 967.546C65.9552 967.546 62.3087 965.95 57.9771 964.354C53.6456 962.758 49.4641 959.78 46.8047 957.652Z" fill="#F0E1C6"/>
<path d="M1622.99 48.9466C1625.12 51.6068 1629.37 55.331 1630.44 57.9911C1631.5 60.6512 1634.16 64.3756 1634.16 67.5678C1634.16 68.9606 1634.59 69.1366 1634.36 71.2918L1634.16 75.016L1634.36 76.4055L1635.22 78.7402H1634.69L1633.1 77.1441L1632.72 76.6121C1631.29 76.6121 1596.02 67.5678 1596.02 67.5678L1392.83 77.1443L1055.65 67.5678L747.404 70.76H603.267H408.069H88.4148H28.9739C28.9739 70.76 41.2504 62.9878 42.8026 60.6512C44.3547 58.3147 57.1827 49.9772 61.9854 46.8187C66.7881 43.6601 78.0715 41.9043 86.6785 39.9023C95.2853 37.9003 100.227 37.3297 108.902 35.6461C117.577 33.9625 128.559 31.8227 138.533 29.7938C148.508 27.7649 154.752 26.2662 164.05 24.4735C172.618 22.8213 177.739 21.9499 185.795 20.579L187.92 20.2172C197.254 18.6272 203.947 17.4515 214.259 15.961C224.571 14.4705 238.823 12.8968 254.591 11.1727C270.358 9.44862 288.398 7.63403 297.392 6.9165C306.385 6.19897 311.444 6.01677 320.439 5.32041C329.434 4.62406 335.472 3.80788 345.132 3.1923C354.791 2.57671 366.182 2.47947 372.294 2.12824C378.405 1.77701 381.821 1.4105 387.933 1.06418C394.044 0.717865 422.633 -0.0137558 434.849 0.00012207C447.066 0.0139999 456.162 0.341576 466.127 0.53215L469.52 0.59684C478.091 0.759987 485.669 0.904266 491.643 1.06418C498.394 1.2449 502.494 1.28674 508.929 1.59621C515.363 1.90569 519.608 2.37405 525.391 2.66027C531.173 2.94649 534.735 2.88313 540.207 3.1923C545.678 3.50146 548.738 3.81222 554.2 4.25636C559.662 4.7005 565.227 5.34937 572.308 5.85244C579.389 6.35551 585.135 6.19019 592.885 6.9165C600.636 7.64281 604.905 8.70268 612.64 9.57664C620.375 10.4506 628.33 10.9002 637.333 11.7048C646.318 12.5077 651.361 12.9829 660.326 13.8278L660.38 13.8329C669.378 14.6809 680.467 15.5738 693.304 17.0251C706.14 18.4763 714.335 16.9492 727.192 18.6211C740.048 20.2931 764.546 17.0251 780.379 17.0251C796.211 17.0251 863.759 15.9611 874.52 15.9611C885.282 15.9611 895.601 18.7984 909.09 20.7493C922.579 22.7002 942.701 25.7397 951.068 27.1337C959.436 28.5276 964.084 29.5702 972.469 30.8579C980.854 32.1455 999.183 34.0734 1007.86 35.1141C1016.54 36.1548 1021.41 36.7067 1030.09 37.7742C1038.76 38.8418 1059.37 41.8468 1071.24 43.0945C1083.11 44.3423 1089.8 44.7847 1101.7 45.7547C1113.59 46.7246 1128.26 48.0212 1145.32 48.9469C1162.38 49.8725 1174.22 49.7152 1192.24 50.5429C1210.25 51.3707 1225.15 52.8823 1238.33 53.2031C1251.42 53.5218 1258.8 53.4079 1271.82 53.207L1272.08 53.2031C1284.95 53.0045 1317.91 51.2246 1338.92 50.0907L1340.39 50.0109C1361.29 48.8828 1378.46 47.8075 1393.9 46.8187C1409.33 45.8299 1418.02 45.7034 1433.4 44.1586C1448.79 42.6137 1459.5 40.6548 1476.21 38.3063C1492.91 35.9578 1512.32 40.3635 1523.93 38.3062C1535.55 36.2489 1542.34 34.4911 1553.57 32.4539C1564.79 30.4167 1577.06 31.9217 1583.1 33.5178C1589.15 35.1138 1595.87 37.7737 1600.12 38.8378C1604.38 39.9019 1608.55 40.9662 1612.89 42.5623C1617.22 44.1583 1620.86 46.2865 1622.99 48.9466Z" fill="#F0E1C6"/>
</svg>
