<svg width="940" height="1557" viewBox="0 0 940 1557" fill="none" xmlns="http://www.w3.org/2000/svg">
<path d="M900 1514.77C899 1517.77 896.391 1518.39 893.5 1519.77C890.609 1521.15 886.429 1521.94 882.5 1521.5C878.571 1521.06 876.213 1520.3 873 1518C869.787 1515.7 876 1485.27 876 1485.27L867 1294.25L876 977.28L873 687.501V552.001V368.5V68.0001L875.5 27C875.5 27 877 28.5 879.5 29.5C882 30.5 892.532 38.6395 895.5 43.1544C898.468 47.6693 900.119 58.2766 902 66.3678C903.881 74.459 904.418 79.1047 906 87.2596C907.582 95.4146 909.593 105.739 911.5 115.116C913.407 124.493 914.815 130.363 916.5 139.103C918.053 147.159 918.872 151.973 920.161 159.548L920.5 161.542C921.994 170.317 923.099 176.609 924.5 186.303C925.901 195.998 927.38 209.396 929 224.218C930.62 239.041 932.326 256 933 264.455C933.674 272.909 933.846 277.665 934.5 286.12C935.154 294.576 935.921 300.253 936.5 309.334C937.079 318.414 937.17 329.123 937.5 334.869C937.83 340.614 938.175 343.825 938.5 349.57C938.825 355.316 939.513 382.191 939.5 393.676C939.487 405.16 939.179 413.711 939 423.079L938.939 426.269C938.786 434.326 938.65 441.45 938.5 447.066C938.33 453.413 938.291 457.267 938 463.316C937.709 469.365 937.269 473.356 937 478.792C936.731 484.228 936.791 487.576 936.5 492.72C936.209 497.864 935.917 500.739 935.5 505.874C935.083 511.009 934.473 516.241 934 522.897C933.527 529.554 933.683 534.956 933 542.242C932.317 549.528 931.321 553.541 930.5 560.812C929.679 568.084 929.256 575.563 928.5 584.026C927.745 592.473 927.299 597.214 926.504 605.644L926.5 605.692C925.703 614.151 924.864 624.576 923.5 636.643C922.136 648.71 923.571 656.414 922 668.5C920.429 680.586 920 703.5 923.5 718.5C927 733.5 926.304 794.315 924.5 807C922.696 819.685 921.833 826.818 920 839.499C918.167 852.18 915.31 871.095 914 878.962C912.69 886.828 911.71 891.197 910.5 899.08C909.29 906.962 907.478 924.194 906.5 932.352C905.522 940.511 905.003 945.089 904 953.244C902.997 961.4 900.173 980.771 899 991.933C897.827 1003.09 897.411 1009.38 896.5 1020.56C895.588 1031.75 894.37 1045.54 893.5 1061.57C892.63 1077.61 892.778 1088.75 892 1105.68C891.222 1122.61 889.801 1136.62 889.5 1149.01C889.2 1161.32 889.307 1168.26 889.496 1180.5L889.5 1180.73C889.687 1192.83 891.359 1223.83 892.425 1243.57L892.5 1244.96C893.56 1264.61 894.571 1280.75 895.5 1295.25C896.429 1309.76 896.548 1317.93 898 1332.4C899.452 1346.86 901.293 1356.93 903.5 1372.63C905.707 1388.34 901.567 1406.58 903.5 1417.5C905.433 1428.42 907.085 1434.81 909 1445.36C910.915 1455.91 910.05 1465.5 910.5 1472.44C910.949 1479.37 909 1484.27 909 1489.27C909 1494.27 907.5 1497.7 906 1501.77C904.5 1505.84 901 1511.77 900 1514.77Z" fill="#F0E1C6"/>
<path d="M46 31.0308C48.5 29.0308 52 25.0308 54.5 24.0308C57 23.0308 60.5002 20.5308 63.5002 20.5308C64.8091 20.5307 64.9745 20.1259 67 20.3455L70.5 20.5308L71.8058 20.3455L74 19.5308V20.0308L72.5 21.5308L72 21.8822C72 23.2337 63.5002 56.3822 63.5002 56.3822L72.5002 247.398L63.5002 564.372L66.5002 854.151V989.651V1173.15V1473.65V1529.53C66.5002 1529.53 59.1959 1517.99 57 1516.53C54.8041 1515.07 46.9686 1503.01 44.0002 1498.5C41.0318 1493.98 39.3817 1483.38 37.5002 1475.28C35.6187 1467.19 35.0824 1462.55 33.5002 1454.39C31.9179 1446.24 29.9069 1435.91 28.0002 1426.54C26.0934 1417.16 24.685 1411.29 23.0002 1402.55C21.4473 1394.49 20.6283 1389.68 19.3396 1382.1L19.0002 1380.11C17.5059 1371.33 16.401 1365.04 15.0002 1355.35C13.5994 1345.65 12.1205 1332.26 10.5002 1317.43C8.87987 1302.61 7.17452 1285.65 6.50018 1277.2C5.82584 1268.74 5.65461 1263.99 5.00018 1255.53C4.34576 1247.08 3.5787 1241.4 3.00018 1232.32C2.42166 1223.24 2.33027 1212.53 2.00018 1206.78C1.6701 1201.04 1.32565 1197.83 1.00018 1192.08C0.674713 1186.34 -0.0128632 1159.46 0.000183105 1147.98C0.0132294 1136.49 0.321075 1127.94 0.500183 1118.57L0.560982 1115.38C0.71431 1107.33 0.849892 1100.2 1.00018 1094.59C1.17002 1088.24 1.20934 1084.39 1.50018 1078.34C1.79103 1072.29 2.23119 1068.3 2.50018 1062.86C2.76917 1057.42 2.70963 1054.08 3.00018 1048.93C3.29074 1043.79 3.58278 1040.91 4.00018 1035.78C4.41759 1030.64 5.0274 1025.41 5.50018 1018.75C5.97297 1012.1 5.8176 1006.7 6.50018 999.41C7.18277 992.124 8.17883 988.111 9.00018 980.84C9.82153 973.568 10.2441 966.089 11.0002 957.626C11.7549 949.179 12.2015 944.438 12.9957 936.008L13.0002 935.96C13.7972 927.501 14.6363 917.076 16.0002 905.009C17.364 892.942 15.9289 885.238 17.5002 873.152C19.0715 861.066 19.5002 838.152 16.0002 823.152C12.5001 808.152 13.1959 747.337 15.0002 734.652C16.8046 721.967 17.6668 714.834 19.5002 702.153C21.3337 689.472 24.1902 670.557 25.5002 662.691C26.8102 654.824 27.7901 650.455 29.0002 642.572C30.2103 634.69 32.0222 617.459 33.0002 609.3C33.9783 601.141 34.497 596.564 35.5002 588.408C36.5035 580.252 39.3276 560.881 40.5002 549.719C41.6728 538.557 42.0887 532.275 43.0002 521.089C43.9118 509.903 45.1303 496.114 46.0002 480.079C46.8701 464.044 46.7223 452.906 47.5002 435.974C48.2782 419.042 49.6988 405.028 50.0002 392.642C50.2998 380.336 50.1927 373.395 50.0039 361.156L50.0002 360.917C49.8136 348.817 48.1408 317.826 47.0752 298.082L47.0002 296.694C45.94 277.046 44.9295 260.906 44.0002 246.398C43.071 231.891 42.9521 223.722 41.5002 209.257C40.0484 194.792 38.2074 184.726 36.0002 169.021C33.7931 153.315 37.9336 135.071 36.0002 124.152C34.0667 113.233 32.4148 106.845 30.5002 96.296C28.5856 85.747 30.0001 74.2138 31.5 68.5308C32.9999 62.8478 35.4998 56.5308 36.4998 52.5308C37.4998 48.5308 38.5 44.6028 40 40.5308C41.5 36.4588 43.5 33.0308 46 31.0308Z" fill="#F0E1C6"/>
<rect x="63.0022" y="43.5327" width="815" height="1462" fill="#F0E1C6"/>
<path d="M450.5 0.0307403C391.192 -0.643211 329.502 9.99295 275.502 9.53265C221.502 9.07236 207.5 7.03076 167.002 4.54905C126.504 2.06734 67.0021 19.0308 64.5021 20.0308C62.0021 21.0308 66.0393 22.0728 65.5021 24.5327C64.9649 26.9925 65.0022 30.0326 64.5021 32.5326C64.0021 35.0326 64.5021 37.0326 63.0021 43.5326C61.502 50.0326 877.011 45.6753 878.002 43.5336C878.993 41.392 878.671 41.3691 879.002 39.0326C879.332 36.6962 879.002 32.5327 878.002 29.5327C877.002 26.5327 872.502 25.5327 869.502 24.0327C866.502 22.5327 820.5 13.5308 781.502 10.5336C742.504 7.5365 710.5 12.5345 671.5 9.53265C632.5 6.53076 616.202 6.72995 574.502 4.54905C532.802 2.36815 509.808 0.704692 450.5 0.0307403Z" fill="#F0E1C6"/>
<path d="M452 1555.53C398.034 1551.55 331 1553.53 277 1546.94C223 1540.36 207.587 1548.51 166.859 1546.94C126.13 1545.38 71.9897 1531.25 69.4932 1530.21C66.9966 1529.16 66.0351 1528.59 65.4987 1526.02C64.9622 1523.44 64.9994 1520.26 64.5001 1517.64C64.0007 1515.02 64.5001 1512.93 63.0021 1506.12C61.5041 1499.31 875.888 1503.88 876.878 1506.12C877.867 1508.36 877.546 1508.39 877.876 1510.83C878.206 1513.28 877.876 1517.64 876.878 1520.78C875.879 1523.92 871.385 1524.97 868.39 1526.54C865.394 1528.11 830 1541.53 792.5 1545.03C755 1548.53 710.5 1545.03 669.165 1546.94C627.829 1548.86 616.143 1548.25 574.5 1550.53C532.858 1552.81 505.966 1559.51 452 1555.53Z" fill="#F0E1C6"/>
</svg>
