<svg width="3440" height="1440" viewBox="0 0 3440 1440" fill="none" xmlns="http://www.w3.org/2000/svg">
<rect y="78.792" width="3440" height="1286.49" fill="#F0E1C6"/>
<path d="M3.45393 66.1664C-2.51646 68.192 1.06579 80.3455 1.06579 80.3455V95.8745L71.5162 91.8235L527.716 112.754L1284.7 100.601L1867.4 80.3455H2191H2629.22H3346.86H3440C3440 80.3455 3436.09 75.2087 3432.61 72.2434C3429.12 69.2782 3419.37 63.4234 3408.59 59.4151C3397.8 55.4067 3372.47 53.1784 3353.15 50.6378C3333.83 48.0971 3322.73 47.3729 3303.26 45.2364C3283.78 43.0998 3259.13 40.3842 3236.73 37.8094C3214.34 35.2346 3200.32 33.3328 3179.45 31.0577C3160.21 28.9607 3148.71 27.8548 3130.62 26.1145L3125.86 25.6563L3119.24 25.0184C3101.55 23.3108 3087.37 21.9417 3066.73 20.2548C3043.57 18.3633 3011.58 16.3663 2976.18 14.1783C2940.78 11.9903 2900.28 9.68745 2880.09 8.77686C2859.9 7.86626 2848.54 7.63503 2828.35 6.75133C2808.15 5.86761 2794.6 4.83183 2772.91 4.05062C2751.22 3.26941 2725.65 3.146 2711.93 2.70026C2698.21 2.25453 2690.54 1.78941 2676.82 1.34991C2663.1 0.910423 2598.92 -0.0180511 2571.49 -0.000434875C2544.06 0.0171738 2523.64 0.432884 2501.27 0.674736L2493.66 0.756798C2474.41 0.96386 2457.4 1.14696 2443.98 1.34991C2428.83 1.57925 2419.62 1.63235 2405.18 2.02509C2390.73 2.41783 2381.2 3.01221 2368.22 3.37544C2355.24 3.73867 2347.24 3.65826 2334.96 4.05062C2322.67 4.44298 2315.81 4.83733 2303.54 5.40097C2291.28 5.96461 2278.79 6.78807 2262.89 7.4265C2246.99 8.06493 2234.09 7.85512 2216.69 8.77686C2199.29 9.69859 2189.71 11.0436 2172.34 12.1527C2154.98 13.2618 2137.12 13.8324 2116.91 14.8534C2096.73 15.8725 2085.41 16.4756 2065.28 17.5479L2065.17 17.5541C2044.96 18.6303 2020.07 19.7635 1991.25 21.6052C1962.43 23.4469 1946.2 24.8848 1917.33 27.0066C1888.47 29.1285 1840.25 32.5297 1799.07 35.7839C1757.89 39.0381 1724.03 42.1247 1693.74 44.5612C1663.45 46.9976 1646.41 48.162 1616.13 50.6378C1585.84 53.1136 1540.67 56.9709 1521.88 58.7399C1503.1 60.5089 1492.66 61.8321 1473.84 63.4661C1455.01 65.1002 1413.86 67.5468 1394.38 68.8675C1374.9 70.1882 1363.96 70.8887 1344.49 72.2434C1325.01 73.5982 1278.75 77.4117 1252.09 78.9952C1225.44 80.5786 1210.43 81.1402 1183.72 82.3711C1157.01 83.602 1124.07 85.2474 1085.78 86.4221C1047.49 87.5968 1020.89 87.3971 980.451 88.4476C940.014 89.4981 906.547 91.4164 876.969 91.8235C847.58 92.228 831.003 92.0834 801.775 91.8285L801.205 91.8235C772.308 91.5715 698.297 89.3127 651.146 87.8737L647.829 87.7725C600.907 86.3408 562.363 84.9762 527.716 83.7214C493.07 82.4666 473.561 82.306 439.017 80.3455C404.473 78.385 380.433 75.899 342.927 72.9186C305.42 69.9382 261.824 66.7521 235.749 64.1413C209.673 61.5305 194.417 59.2997 169.224 56.7144C144.032 54.129 120.319 52.5947 103.756 51.9877C87.1931 51.3807 76.0767 52.1368 64.3518 54.0133C52.6268 55.8897 44.4608 54.9127 34.3279 58.7399C24.195 62.567 9.42433 64.1409 3.45393 66.1664Z" fill="#F0E1C6"/>
<path d="M3428.09 1371.13C3435.24 1369.78 3440 1362.35 3440 1362.35L3430.47 1344.12L3360.19 1348.17L2905.12 1327.24L2150 1339.4L1568.73 1359.65H1245.93H808.781H92.9084H0C0 1359.65 3.89697 1364.79 7.37329 1367.75C10.8494 1370.72 20.5811 1376.57 31.3367 1380.58C42.0925 1384.59 67.3621 1386.82 86.6372 1389.36C105.913 1391.9 116.98 1392.63 136.408 1394.76C155.835 1396.9 180.429 1399.61 202.768 1402.19C225.107 1404.76 239.09 1406.67 259.912 1408.94C279.103 1411.04 290.57 1412.14 308.615 1413.88L313.369 1414.34L319.968 1414.98C337.614 1416.69 351.762 1418.06 372.356 1419.74C395.451 1421.63 427.369 1423.63 462.68 1425.82C497.991 1428.01 538.394 1430.31 558.534 1431.22C578.675 1432.13 590.004 1432.36 610.148 1433.25C630.292 1434.13 643.816 1435.17 665.449 1435.95C687.081 1436.73 712.592 1436.85 726.279 1437.3C739.966 1437.74 747.615 1438.21 761.302 1438.65C774.99 1439.09 839.014 1440.02 866.374 1440C893.733 1439.98 914.104 1439.57 936.421 1439.32L944.021 1439.24C963.214 1439.03 980.186 1438.85 993.565 1438.65C1008.68 1438.42 1017.86 1438.37 1032.27 1437.97C1046.69 1437.58 1056.19 1436.99 1069.14 1436.62C1082.09 1436.26 1090.07 1436.34 1102.32 1435.95C1114.58 1435.56 1121.43 1435.16 1133.66 1434.6C1145.89 1434.03 1158.35 1433.21 1174.21 1432.57C1190.07 1431.93 1202.94 1432.14 1220.3 1431.22C1237.65 1430.3 1247.21 1428.95 1264.54 1427.85C1281.86 1426.74 1299.68 1426.17 1319.84 1425.14C1339.96 1424.13 1351.26 1423.52 1371.34 1422.45L1371.45 1422.44C1391.6 1421.37 1416.44 1420.23 1445.18 1418.39C1473.93 1416.55 1490.13 1415.11 1518.92 1412.99C1547.71 1410.87 1595.82 1407.47 1636.89 1404.21C1677.97 1400.96 1711.75 1397.87 1741.96 1395.44C1772.18 1393 1789.18 1391.84 1819.38 1389.36C1849.59 1386.88 1894.66 1383.03 1913.4 1381.26C1932.14 1379.49 1942.54 1378.17 1961.32 1376.53C1980.1 1374.9 2021.15 1372.45 2040.59 1371.13C2060.02 1369.81 2070.93 1369.11 2090.36 1367.75C2109.79 1366.4 2155.93 1362.59 2182.52 1361C2209.11 1359.42 2224.08 1358.86 2250.73 1357.63C2277.38 1356.4 2310.23 1354.75 2348.43 1353.58C2386.62 1352.4 2413.16 1352.6 2453.5 1351.55C2493.83 1350.5 2527.22 1348.58 2556.72 1348.17C2586.04 1347.77 2602.58 1347.91 2631.73 1348.17L2632.3 1348.17C2661.13 1348.43 2734.96 1350.69 2781.99 1352.12L2785.3 1352.23C2832.11 1353.66 2870.56 1355.02 2905.12 1356.28C2939.68 1357.53 2959.14 1357.69 2993.6 1359.65C3028.06 1361.61 3052.04 1364.1 3089.45 1367.08C3126.87 1370.06 3170.35 1373.25 3196.37 1375.86C3222.38 1378.47 3237.6 1380.7 3262.73 1383.28C3287.86 1385.87 3310.72 1384.7 3327.24 1385.31C3343.77 1385.92 3355.43 1383.28 3367.34 1383.28C3379.25 1383.28 3387.42 1381.26 3397.12 1379.23C3406.82 1377.21 3420.94 1372.48 3428.09 1371.13Z" fill="#F0E1C6"/>
</svg>
