<svg width="3440" height="1440" viewBox="0 0 3440 1440" fill="none" xmlns="http://www.w3.org/2000/svg">
<g clip-path="url(#clip0_357_10)">
<rect x="3343.81" y="96.5352" width="1248.78" height="3230.59" transform="rotate(90 3343.81 96.5352)" fill="#F0E1C6"/>
<path d="M3439.93 690.276C3441.42 599.402 3417.92 504.878 3418.94 422.137C3419.95 339.396 3424.46 317.941 3429.95 255.889C3435.43 193.836 3397.95 102.664 3395.74 98.8339C3393.53 95.0033 3391.23 101.189 3385.79 100.366C3380.35 99.543 3373.64 99.6 3368.11 98.8339C3362.59 98.0677 3358.17 98.8339 3343.81 96.5354C3329.44 94.2369 3339.07 1343.79 3343.8 1345.31C3348.54 1346.83 3348.59 1346.34 3353.75 1346.85C3358.91 1347.35 3368.11 1346.85 3374.74 1345.31C3381.37 1343.78 3383.58 1336.89 3386.89 1332.29C3390.21 1327.69 3410.1 1257.21 3416.72 1197.45C3423.35 1137.7 3412.3 1088.66 3418.94 1028.9C3425.57 969.145 3425.13 944.172 3429.95 880.278C3434.77 816.383 3438.44 781.15 3439.93 690.276Z" fill="#F0E1C6"/>
<path d="M2.73493 692.575C11.5317 609.885 7.15457 507.173 21.7076 424.432C36.2605 341.691 18.2432 318.075 21.7076 255.669C25.1719 193.263 56.3813 110.307 58.6954 106.481C61.0096 102.656 62.2595 101.183 67.9519 100.361C73.6443 99.5389 80.6795 99.5958 86.4648 98.8307C92.2501 98.0656 96.8783 98.8307 111.92 96.5354C126.962 94.2401 116.878 1342.07 111.922 1343.59C106.966 1345.11 106.913 1344.62 101.507 1345.12C96.0997 1345.63 86.4648 1345.12 79.5225 1343.59C72.5801 1342.06 70.266 1335.18 66.7948 1330.58C63.3237 1325.99 33.671 1271.76 25.9371 1214.3C18.2031 1156.84 25.9371 1088.66 21.7076 1025.32C17.478 961.988 18.8305 944.081 13.7837 880.274C8.73683 816.468 -6.0618 775.264 2.73493 692.575Z" fill="#F0E1C6"/>
<path d="M97.2271 1379.02C91.7029 1375.96 89.4932 1371.36 86.1786 1369.06C82.8641 1366.76 74.6268 1348.83 72.9296 1343.47C71.2323 1338.11 69.6158 1331.98 68.5109 1325.08C67.406 1318.19 159.099 1312.37 159.099 1312.37L578.985 1328.91L1279.4 1342.7L1919.73 1338.11H2219.14H2624.63H3288.64L3379.24 1341.94C3379.24 1341.94 3375.93 1344.23 3373.72 1348.07C3371.51 1351.9 3353.52 1368.03 3343.55 1372.58C3333.57 1377.13 3310.13 1379.66 3292.25 1382.54C3274.37 1385.42 3264.11 1386.25 3246.09 1388.67C3228.07 1391.09 3205.25 1394.18 3184.53 1397.1C3163.81 1400.02 3150.84 1402.18 3131.53 1404.76C3113.73 1407.14 3103.09 1408.39 3086.35 1410.37L3081.94 1410.89C3062.55 1413.18 3048.65 1414.87 3027.23 1417.02C3005.81 1419.16 2976.2 1421.43 2943.45 1423.91C2910.7 1426.39 2873.22 1429.01 2854.54 1430.04C2835.86 1431.07 2825.35 1431.34 2806.66 1432.34C2787.98 1433.34 2775.43 1434.52 2755.37 1435.4C2735.3 1436.29 2711.64 1436.43 2698.94 1436.94C2686.25 1437.44 2679.15 1437.97 2666.46 1438.47C2653.76 1438.97 2594.38 1440.02 2569 1440C2543.62 1439.98 2524.72 1439.51 2504.02 1439.23L2496.98 1439.14C2479.17 1438.91 2463.43 1438.7 2451.02 1438.47C2437 1438.21 2428.48 1438.15 2415.11 1437.7C2401.75 1437.26 2392.93 1436.58 2380.92 1436.17C2368.9 1435.76 2361.51 1435.85 2350.14 1435.4C2338.77 1434.96 2332.42 1434.51 2321.07 1433.87C2309.72 1433.23 2298.16 1432.3 2283.45 1431.57C2268.75 1430.85 2256.81 1431.09 2240.71 1430.04C2224.61 1428.99 2215.74 1427.47 2199.67 1426.21C2183.61 1424.95 2167.08 1424.3 2148.38 1423.15C2129.72 1421.99 2119.25 1421.31 2100.63 1420.09L2100.5 1420.08C2081.81 1418.86 2058.78 1417.57 2032.11 1415.48C2005.45 1413.39 1988.42 1415.59 1961.72 1413.19C1935.01 1410.78 1884.38 1410.12 1851.23 1415.48C1818.09 1420.85 1683.7 1419.78 1655.67 1417.02C1627.64 1414.25 1611.88 1412.93 1583.86 1410.12C1555.84 1407.31 1514.04 1402.94 1496.66 1400.93C1479.28 1398.92 1469.62 1397.42 1452.2 1395.56C1434.79 1393.71 1396.71 1390.93 1378.68 1389.44C1360.65 1387.94 1350.54 1387.14 1332.52 1385.61C1314.49 1384.07 1271.69 1379.74 1247.02 1377.94C1222.36 1376.15 1208.48 1375.51 1183.76 1374.11C1159.04 1372.72 1128.57 1370.85 1093.14 1369.52C1057.71 1368.18 1033.1 1368.41 995.681 1367.22C958.266 1366.03 927.3 1363.85 899.931 1363.39C872.739 1362.93 857.4 1363.09 830.356 1363.38L829.829 1363.39C803.091 1363.67 734.609 1366.24 690.981 1367.87L687.913 1367.98C644.497 1369.61 608.833 1371.16 576.775 1372.58C544.718 1374.01 526.667 1374.19 494.704 1376.41C462.741 1378.64 440.497 1381.46 405.793 1384.84C371.09 1388.22 333.666 1384.84 308.254 1386.68C282.842 1388.52 268.403 1390.33 245.093 1393.27C221.783 1396.2 200.575 1394.88 185.25 1395.56C169.924 1396.25 159.105 1393.27 148.057 1393.27C137.008 1393.27 129.433 1390.97 120.436 1388.67C111.438 1386.37 102.751 1382.08 97.2271 1379.02Z" fill="#F0E1C6"/>
<path d="M3371.43 70.4829C3375.85 74.3135 3384.69 79.6764 3386.9 83.507C3389.11 87.3376 3394.63 92.7007 3394.63 97.2975C3394.63 99.3031 3395.53 99.5565 3395.04 102.66L3394.63 108.023L3395.04 110.024L3396.84 113.386H3395.74L3392.42 111.087L3391.65 110.321C3388.66 110.321 3315.41 97.2975 3315.41 97.2975L2893.32 111.088L2192.9 97.2975L1552.58 101.894H1253.16H847.68H183.663H60.187C60.187 101.894 85.6887 90.7023 88.9131 87.3376C91.9429 84.1759 115.656 73.3839 126.783 68.3196L128.761 67.4187C138.738 62.8704 162.177 60.342 180.056 57.4592C197.935 54.5763 208.201 53.7546 226.221 51.3302C244.241 48.9058 267.054 45.8245 287.774 42.9028C308.495 39.9812 321.466 37.8232 340.779 35.2416C358.579 32.8624 369.217 31.6075 385.954 29.6331L390.364 29.1127C409.754 26.8231 423.656 25.13 445.078 22.9837C466.5 20.8374 496.106 18.5713 528.859 16.0886C561.613 13.6059 599.088 10.9929 617.77 9.95962C636.452 8.92637 646.96 8.664 665.645 7.66125C684.33 6.65851 696.874 5.48321 716.94 4.59677C737.005 3.71033 760.668 3.5703 773.364 3.06453C786.059 2.55875 793.154 2.03098 805.85 1.53228C818.546 1.03359 877.933 -0.0199432 903.31 3.8147e-05C928.687 0.0200272 947.583 0.49173 968.283 0.766159L975.33 0.859291C993.134 1.09423 1008.88 1.30199 1021.29 1.53228C1035.31 1.79251 1043.83 1.85276 1057.19 2.2984C1070.56 2.74405 1079.38 3.4185 1091.39 3.83065C1103.4 4.24281 1110.8 4.15157 1122.17 4.59677C1133.53 5.04198 1139.89 5.48945 1151.24 6.12901C1162.58 6.76858 1174.14 7.70296 1188.85 8.42738C1203.56 9.15179 1215.5 8.91373 1231.6 9.95962C1247.7 11.0055 1256.57 12.5317 1272.63 13.7902C1288.7 15.0487 1305.23 15.6962 1323.93 16.8547C1342.59 18.011 1353.07 18.6953 1371.69 19.912L1371.8 19.9192C1390.5 21.1404 1413.53 22.4262 1440.2 24.5159C1466.86 26.6057 1483.88 24.4066 1510.59 26.8143C1537.3 29.2219 1588.19 24.5159 1621.08 24.5159C1653.96 24.5159 1794.28 22.9838 1816.64 22.9838C1838.99 22.9838 1860.43 27.0696 1888.45 29.8789C1916.47 32.6881 1958.27 37.0651 1975.65 39.0723C1993.03 41.0796 2002.69 42.581 2020.1 44.4352C2037.52 46.2893 2075.6 49.0656 2093.63 50.5641C2111.65 52.0627 2121.77 52.8575 2139.79 54.3947C2157.81 55.932 2200.62 60.2593 2225.28 62.056C2249.95 63.8527 2263.83 64.4899 2288.55 65.8866C2313.26 67.2833 2343.73 69.1504 2379.17 70.4833C2414.6 71.8162 2439.21 71.5897 2476.63 72.7817C2514.04 73.9737 2545.01 76.1504 2572.38 76.6123C2599.57 77.0712 2614.91 76.9072 2641.95 76.6179L2642.48 76.6123C2669.22 76.3263 2737.7 73.7633 2781.32 72.1304L2784.39 72.0155C2827.81 70.391 2863.47 68.8427 2895.53 67.4188C2927.59 65.9949 2945.64 65.8128 2977.6 63.5882C3009.57 61.3636 3031.81 58.5427 3066.51 55.1609C3101.22 51.779 3141.53 58.1233 3165.66 55.1608C3189.79 52.1983 3203.9 49.6671 3227.21 46.7335C3250.52 43.7998 3276.01 45.9671 3288.57 48.2654C3301.12 50.5637 3315.08 54.394 3323.92 55.9263C3332.76 57.4585 3341.44 58.9911 3350.44 61.2895C3359.44 63.5878 3367.01 66.6523 3371.43 70.4829Z" fill="#F0E1C6"/>
</g>
<defs>
<clipPath id="clip0_357_10">
<rect width="3440" height="1440" fill="white"/>
</clipPath>
</defs>
</svg>
